<?xml version="1.0" encoding="UTF-8"?>
<!DOCTYPE svg PUBLIC "-//W3C//DTD SVG 1.1//EN" "http://www.w3.org/Graphics/SVG/1.1/DTD/svg11.dtd">
<!-- Creator: CorelDRAW 2019 (64-Bit) -->
<svg xmlns="http://www.w3.org/2000/svg" xml:space="preserve" width="0.229165in" height="0.229165in" version="1.1" style="shape-rendering:geometricPrecision; text-rendering:geometricPrecision; image-rendering:optimizeQuality; fill-rule:evenodd; clip-rule:evenodd"
viewBox="0 0 229.17 229.17"
 xmlns:xlink="http://www.w3.org/1999/xlink"
 xmlns:xodm="http://www.corel.com/coreldraw/odm/2003">
 <defs>
  <style type="text/css">
   <![CDATA[
    .str0 {stroke:black;stroke-width:20.83;stroke-linecap:round;stroke-linejoin:round;stroke-miterlimit:2.61313}
    .fil0 {fill:none}
   ]]>
  </style>
 </defs>
 <g id="Layer_x0020_1">
  <metadata id="CorelCorpID_0Corel-Layer"/>
  <g id="_2203212737008">
   <path class="fil0 str0" d="M62.5 10.42l104.17 0c28.76,0 52.08,23.32 52.08,52.08l0 104.17c0,28.76 -23.32,52.08 -52.08,52.08l-104.17 0c-28.76,-0 -52.08,-23.33 -52.08,-52.09l-0 -104.16c0,-28.76 23.33,-52.08 52.09,-52.08z"/>
   <path class="fil0 str0" d="M156.25 108.02c0.29,2.02 0.45,4.07 0.45,6.11 0,23 -18.66,41.66 -41.67,41.66 -23,0 -41.66,-18.66 -41.66,-41.66 0,-23.01 18.66,-41.67 41.66,-41.67 2.04,0 4.09,0.16 6.11,0.45 18.15,2.69 32.41,16.95 35.1,35.1l0 -0z"/>
   <line class="fil0 str0" x1="171.87" y1="57.29" x2="171.98" y2= "57.29" />
  </g>
 </g>
</svg>
