<?xml version="1.0" encoding="UTF-8"?>
<!DOCTYPE svg PUBLIC "-//W3C//DTD SVG 1.1//EN" "http://www.w3.org/Graphics/SVG/1.1/DTD/svg11.dtd">
<!-- Creator: CorelDRAW 2019 (64-Bit) -->
<svg xmlns="http://www.w3.org/2000/svg" xml:space="preserve" width="9.28866in" height="1.86521in" version="1.1" style="shape-rendering:geometricPrecision; text-rendering:geometricPrecision; image-rendering:optimizeQuality; fill-rule:evenodd; clip-rule:evenodd"
viewBox="0 0 7336.4 1473.19"
 xmlns:xlink="http://www.w3.org/1999/xlink"
 xmlns:xodm="http://www.corel.com/coreldraw/odm/2003">
 <defs>
  <style type="text/css">
   <![CDATA[
    .str0 {stroke:#333333;stroke-width:65.82;stroke-miterlimit:2.61313}
    .fil1 {fill:none}
    .fil0 {fill:#FDCC03}
   ]]>
  </style>
 </defs>
 <g id="Layer_x0020_1">
  <metadata id="CorelCorpID_0Corel-Layer"/>
  <polygon class="fil0" points="702.5,62.31 945.41,458.84 1405,581.98 1109.68,939.74 1136.67,1422.84 711.24,1247.41 268.33,1422.84 300.73,956.66 -0,581.98 445.45,469.3 "/>
  <polygon class="fil0" points="2170.86,62.31 2413.77,458.84 2873.36,581.98 2578.03,939.74 2605.03,1422.84 2179.6,1247.41 1736.68,1422.84 1769.08,956.66 1468.35,581.98 1913.81,469.3 "/>
  <polygon class="fil0" points="3639.21,62.31 3882.12,458.84 4341.71,581.98 4046.39,939.74 4073.38,1422.84 3647.95,1247.41 3205.04,1422.84 3237.44,956.66 2936.71,581.98 3382.16,469.3 "/>
  <polygon class="fil0" points="5107.56,62.31 5350.47,458.84 5810.07,581.98 5514.74,939.74 5541.74,1422.84 5116.3,1247.41 4673.39,1422.84 4705.79,956.66 4405.06,581.98 4850.52,469.3 "/>
  <g>
   <polygon class="fil1 str0" points="6575.92,62.31 6818.83,458.84 7278.42,581.98 6983.09,939.74 7010.09,1422.84 6584.66,1247.41 6141.75,1422.84 6174.14,956.66 5873.42,581.98 6318.87,469.3 "/>
  </g>
 </g>
</svg>
